<svg viewBox="0 0 16 16" xmlns="http://www.w3.org/2000/svg"><path d="m15.9773372 7.98019944c0 4.40708496-3.5728328 7.98001166-7.98019939 7.98001166-4.40746039 0-7.98024631-3.5729267-7.98024631-7.98001166 0-4.4073666 3.57283284-7.98019944 7.98024631-7.98019944 4.40741349 0 7.98019939 3.57283284 7.98019939 7.98019944zm-13.40649849-1.06566569c-.58871554 0-1.06566569.47699706-1.06566569 1.06566569 0 .58838706.47695015 1.06533725 1.06566569 1.06533725.5883871 0 1.06533724-.47695019 1.06533724-1.06533725 0-.58866863-.47695014-1.06566569-1.06533724-1.06566569zm7.60717889 4.84241635c-.50960704.2943343-.68434016.9455953-.38995898 1.4549208.29400588.5096071.94526688.6842933 1.45487398.389959.5095601-.2940058.6842932-.9452668.3899589-1.4549208-.2940059-.5092786-.9456422-.6839648-1.4548739-.389959zm-5.29290323-3.77675066c0-1.05290325.52297947-1.98310853 1.32321407-2.54639299l-.77893255-1.30463343c-.93217595.6231085-1.62575953 1.57527273-1.91399413 2.69043985.33632845.27443994.55160117.69222288.55160117 1.16053963 0 .46803519-.21527272.88581819-.55160117 1.16025806.28785924 1.11549564.98144281 2.06770674 1.91399413 2.69081524l.77893255-1.3049619c-.8002346-.56295596-1.32321407-1.49311434-1.32321407-2.54606446zm3.11202344-3.11235193c1.6258065 0 2.95967159 1.24654545 3.09968329 2.8362698l1.5181701-.02238125c-.074698-1.1736305-.5874018-2.22723753-1.3752023-3.00199412-.4051144.15305572-.8730558.12964222-1.27751321-.10350733-.40516132-.23380646-.65919063-.62822288-.72863344-1.05637537-.39375956-.10866862-.80816425-.16816423-1.23659825-.16816423-.73651612 0-1.43286806.17299707-2.05114371.47901466l.74031671 1.3266393c.39826394-.18533724.84255719-.28950146 1.31092081-.28950146zm0 6.22437539c-.46836362 0-.91265687-.1042112-1.31087387-.2895015l-.74031673 1.3265924c.61827566.3063929 1.31462754.4794369 2.0511906.4794369.42843406 0 .84283875-.0595425 1.23655131-.1685396.06944282-.4281525.323566-.8221935.72863344-1.0564222.40473904-.233525.87239884-.2565162 1.27751314-.1034605.7878007-.7747565 1.3005045-1.82836359 1.3752024-3.00199409l-1.5185454-.02238125c-.1396833 1.59014663-1.47350151 2.83626984-3.09935489 2.83626984zm2.18050439-6.88943111c.5096071.29428739 1.160915.11997654 1.4549209-.3896305.2943343-.50960704.1200234-1.16091496-.3896305-1.45529619-.5096071-.29400586-1.1608681-.11931964-1.45529623.39028739-.29395893.50932552-.11927275 1.16063343.39000583 1.4546393z" fill="#fff"/></svg>